/* XPM */
static char *ce69a82c53ae4a69a9c750c7db85d63fJblWH72t8P4Hikl4[] = {
/* columns rows colors chars-per-pixel */
"64 64 199 2 ",
"   c None",
".  c #000000",
"X  c #090907",
"o  c #0C0B0B",
"O  c #0C0403",
"+  c #110F0E",
"@  c #160706",
"#  c #11100E",
"$  c #151514",
"%  c #191613",
"&  c #1B1A16",
"*  c #1E1D1A",
"=  c #16181A",
"-  c #280C0A",
";  c #340E0C",
":  c #21140E",
">  c #37100E",
",  c #3A110F",
"<  c #221B18",
"1  c #391513",
"2  c #24221E",
"3  c #2A221D",
"4  c #3C2C1B",
"5  c #1B1D20",
"6  c #1E2225",
"7  c #262421",
"8  c #2C2A24",
"9  c #292928",
"0  c #322D27",
"q  c #322E29",
"w  c #3D2D27",
"e  c #34312D",
"r  c #3B352D",
"t  c #3E382F",
"y  c #292D31",
"u  c #333433",
"i  c #3D3B36",
"p  c #33373A",
"a  c #36393C",
"s  c #3B3B38",
"d  c #2B3035",
"f  c #471815",
"g  c #571A16",
"h  c #6B1E1A",
"j  c #49221E",
"k  c #53291D",
"l  c #68221E",
"z  c #73221D",
"x  c #7C211C",
"c  c #4B2A2A",
"v  c #462B27",
"b  c #592D28",
"n  c #4D3D25",
"m  c #463A27",
"M  c #57332D",
"N  c #433C34",
"B  c #4A3A39",
"V  c #563637",
"C  c #6C2B26",
"Z  c #682621",
"A  c #782622",
"S  c #633631",
"D  c #763C3B",
"F  c #534229",
"G  c #46433D",
"H  c #4C443B",
"J  c #4F483E",
"K  c #50493F",
"L  c #644F30",
"P  c #765037",
"I  c #393D40",
"U  c #3D4246",
"Y  c #484746",
"T  c #554E44",
"R  c #524F4A",
"E  c #5C564C",
"W  c #5A534A",
"Q  c #494D53",
"!  c #4C535B",
"~  c #595859",
"^  c #6B4746",
"/  c #635A4D",
"(  c #695B4E",
")  c #79534A",
"_  c #635E54",
"`  c #695D51",
"'  c #675F58",
"]  c #73585D",
"[  c #7B4342",
"{  c #686258",
"}  c #796D5D",
"|  c #726859",
" . c #7C705F",
".. c #4F5861",
"X. c #525B63",
"o. c #5C646D",
"O. c #5D6872",
"+. c #696664",
"@. c #7D7263",
"#. c #7D796D",
"$. c #646C75",
"%. c #636E78",
"&. c #67727C",
"*. c #6B747D",
"=. c #787279",
"-. c #736E65",
";. c #84241E",
":. c #89251F",
">. c #8B2621",
",. c #862B25",
"<. c #932923",
"1. c #9D2C25",
"2. c #922722",
"3. c #94322B",
"4. c #983029",
"5. c #993C37",
"6. c #87352F",
"7. c #A32C25",
"8. c #AA2E27",
"9. c #AC2F28",
"0. c #A42E28",
"q. c #A4322B",
"w. c #AC322C",
"e. c #B4322A",
"r. c #BB332B",
"t. c #B83C35",
"y. c #C3352D",
"u. c #CB372F",
"i. c #CE382F",
"p. c #D0382F",
"a. c #CF3830",
"s. c #C23A32",
"d. c #D43930",
"f. c #DB3B32",
"g. c #8B4237",
"h. c #96413C",
"j. c #B3433A",
"k. c #955149",
"l. c #9A5D54",
"z. c #856841",
"x. c #9A7B4B",
"c. c #9B665C",
"v. c #837664",
"b. c #8C7E6C",
"n. c #877B6A",
"m. c #847E73",
"M. c #A98754",
"N. c #8F806D",
"B. c #92836F",
"V. c #8A8275",
"C. c #8B8479",
"Z. c #938572",
"A. c #9D8C76",
"S. c #9D8E7A",
"D. c #948979",
"F. c #A4937D",
"G. c #AD987C",
"H. c #B38F6A",
"J. c #C39B5F",
"K. c #6B7682",
"L. c #6E7984",
"P. c #727A84",
"I. c #717D8A",
"U. c #75818D",
"Y. c #778491",
"T. c #788593",
"R. c #7B8996",
"E. c #7E8C9A",
"W. c #8A8A87",
"Q. c #9A9284",
"!. c #90908C",
"~. c #AD9B84",
"^. c #A49B8B",
"/. c #A79A87",
"(. c #B29F85",
"). c #A79F91",
"_. c #B5A38B",
"`. c #B8A68D",
"'. c #A9A193",
"]. c #BDAB92",
"[. c #BFAF98",
"{. c #B8A893",
"}. c #C0AE95",
"|. c #C4B196",
" X c #C7B399",
".X c #CAB69B",
"XX c #CEBA9E",
"oX c #C9B395",
"OX c #D1BB9F",
"+X c #C4AB86",
"@X c #D2BDA1",
"#X c #D6C1A4",
"$X c #DAC4A7",
"%X c #DDC6A9",
"&X c #DCC8AE",
"*X c #E4CCAD",
"=X c #E4C9A4",
"-X c #E6CFB1",
";X c #E7D0B1",
/* pixels */
"                                                      F.| `                                                                     ",
"                                                    J v.F.].                                                                    ",
"                                                  } *Xv.OXW # T OX_.A.@.                                                        ",
"                                                `.;XB.~.N A.}.*X-X`.+ A..Xr                                                     ",
"                                              F.%XA.} N Q.F.`.%X*Xb._.W *X;X8                                                   ",
"                                            @.@Xn.OX0 v.XXH ` 8 ;X;X-X-X-X;X X& %                                               ",
"                                            v.*X-X|.0 N.-Xv.`.0 `.*X*X;X*XXX XT .                                               ",
"                                             .*X-XH r *X .].*X*X;X*X;X;X#X].-X.X. o                                             ",
"                                            ` Z.b.r % A.oX.X;X;X;X;X;XOX;X*X/.|.. .                                             ",
"                                            n.;X*Xq . X N |.;X;X;X=X;X@.-X} ( ;X. .                                             ",
"                  / @X;X*X;X;X~.K ^.        [.;X X% . . . . F.%XOX*X-X-XJ J ;X%X. X                                             ",
"        { *.i _.=X;X;X;X-X;X-X;X;X;X;X;X-X-X*X*X(.. . . . . X (.`..X=X-X-X;X;Xn..                                               ",
"      s L.R -X;X-X$X;X;X;X;X;X;X;X;X;X-X-X;X|.A.~.. . . . . . $ -XD.-X{.*X-X%X8 *                                               ",
"    +.Y.&.R -Xv.W.!.W.;X;X;X;X-X;X;X*X~.H m.    | . . . . . . . ].A.&X`.*X;XG.z.                                                ",
"    U.I.U.d U U.E.E.L.D. XXX|._._.e T             & . . . . . . ;Xb./ #X;X].m H.                                                ",
"    =.U.I.K.E.E.%.a E.&.$.3 w > :                   . . . . . t ;X;X;X;XD.                                                      ",
"      y E.E.E...I.R.*.%.V w.f.f.f.r.        . . E   i . . . L (.~.Z.W {                                                         ",
"        $.E.E.K.P.Y.O.y <.r.f.f.f.f.y.v R i . . . . X . . . J.+X;X*X~.                                                          ",
"          u U.%.$.~ f 7.x f.f.f.f.f.f.e.u.u.w.> O . . O ; ! I.p ;X;X;Xr X 9 ~                                                   ",
"                7 z f.r.f.f.f.f.f.f.f.f.u.w.u.y.x 7.7.e.d.w.p o.| ;X;XB.a E.E.K.$.                                              ",
"                    > u.f.f.f.f.f.f.f.f.f.f.f.f.y.e.f.f.f.f.V E.P.S.-X;Xy U.E.E.E.Q                                             ",
"                      ^ >.f.f.f.f.f.f.f.f.f.f.f.f.u.9.f.f.f.t.L.E.L.W. XN = E.E.E.I.o.                                          ",
"                          C 9.d.f.f.f.f.f.f.f.f.f.f.y.8.f.f.u.=.E.E.E...}.D.I E.Q @ e                                           ",
"                              j 2.f.f.f.f.f.f.f.f.f.f.y.f.f.f.^ E.E.E.E.*. XQ.I.<.r.3.                                          ",
"                                  % 6.w.e.d.f.f.f.f.f.f.f.f.f.:.E.E.E.O.5 ).].u f.f.,.g.                                        ",
"                                          l.b f A 1.r.u.f.f.f.f.Y E.R.6 o.! [.S f.f.e.e.5.                                      ",
"                                                        z f.f.f.t.P.&.Z =.E.{.j.f.f.u.u.d.k.                                    ",
"                                                        f f.f.f.f.5.+.r.q.*.e w.f.f.f.w.f.d.h.                                  ",
"                                                        ) u.f.f.f.f.d.f.f.D ] a.w.8.f.,.f.d.y.b                                 ",
"                                                          0.f.f.f.f.f.f.f.u.<.k 4 : f.3.f.r.f.e.+                               ",
"                                                          < f.f.f.f.f.f.f.f.q.M.x.M.A e.f.<.f.f.t.                              ",
"                                                            ;.f.f.f.f.f.f.f.P n x.n 3.8.f.1.f.f.d.M                             ",
"                                                          f f.f.f.f.f.f.f.s.F M.P g.1.7.u.u.f.f.f.f.B                           ",
"                                                          s.f.f.f.f.f.f.f.l J.F x.j., 8.;.f.f.f.f.f.4.                          ",
"                                                        C f.f.f.f.f.f.f.f.y.k n z.1.- u.f.f.f.f.f.f.e.                          ",
"                                                      Y p.f.f.f.f.>.f.f.f.f.u.7.e.f ; f.f.f.f.f.f.f.f.)                         ",
"                                                      g d.u.d.7.1.f.f.f.d.u.f.f.y.M j f.d.y.e.y.f.f.f.1                         ",
"                                            ` q.e.u.d.d.d.u.d.f.f.f.f.d.y.7.f.f.q.    >.u.r.e.y.f.f.f.,                         ",
"                                          Z f.f.f.f.f.f.f.f.f.f.f.f.e.y.r.y.f.f.:   k.7.x z ;.r.f.f.f.b                         ",
"                                        t.f.f.f.f.f.f.f.f.f.f.f.f.9.y.f.r.f.f.z     f d.f.f.f.r.2.f.e.                          ",
"                                      3.f.f.f.f.f.f.f.f.f.f.d.u.;.f.d.:.f.f.i.j   Q *.*.Y h.r.f.f.f.C                           ",
"                                    c.i.f.f.f.f.f.f.f.f.f.<.u.u.f.f.:.d.f.f.8.' %.E.E.E.E.T.] u.f.h                             ",
"                                    D [ w.d.f.f.f.f.f.e.7.f.f.f.d.<.f.f.f.f.1 a K.&.E.E.E.I.c f.<.                              ",
"                                Y L.Y.E.$.c f.f.f.f.f.f.f.f.f.f.<.d.f.f.f.<._ o.W `.Q T.T.9 > >.(                               ",
"                              7 X.K.E.E.E.E.c a.f.f.f.f.f.f.d.x f.f.f.f.p.1   Y ;X;X~.! I.B 5.7 9 p 2                           ",
"                              * O.! &.E.E.E.Y.V d.f.f.f.f.e.y.d.f.f.f.f.q.  W $X;X;X{ X Q U.I.R.E.U                             ",
"                                Q 6 $ %.E.E.E.E.B e.f.f.f.f.f.f.f.f.f.r.2 | ;X-X#XB . o.E.E.U.&.$                               ",
"                                  * . o y $.I.X.5 @ z f.f.f.f.f.f.f.u.M }.*X;X_.E     Y a ~                                     ",
"                                  # . X 7 . . . . . . g 9.d.f.f.f.f.q.S ;X-XZ.                                                  ",
"                                  o . & +.. . . . . . . O ; x d.f.f.u.A.*X@.                                                    ",
"                                  X e 8 < e . . . . . . . . . . . . / *X@X                                                      ",
"                                  . $ # # 7 . . . . . . . . . G . . ;X;X-X/.                                                    ",
"                                  . . m.+.. . . . . . . . 8 0 o . . XX;X;X^.                                                    ",
"                                  . . . . . . . . . . 8   u . . . . v.;X%X                                                      ",
"                                  . ^.7 0 _ . . . 8 #.  . . . . . . *X-X].` { _./                                               ",
"                                  . . V.V.. . . . . .   . . . . . . XX-X.X_.b.$X/ 0                                             ",
"                                  . . X . . . . . . .   . . C.X . . H -X@X.X@X@X$XH                                             ",
"                                  . . . . . . . . . .   . . G D.. . 8 $X;X;X*X#XV.                                              ",
"                                  . . . . . . . . . . i # & m.o . . + m.r 2 V.                                                  ",
"                                -.. . . . . . . . . . i 7 2 . Q.. . X                                                           ",
"                                { . . . . . . . . . .   X X '.o e e .                                                           ",
"                                Y . . . . . . . . . .   8 G & Q.E o . E                                                         ",
"                                N . . . . . . . . . .   . o C.$ * Q.. o                                                         ",
"                                i . . . . . . . _ . .   $ ).7 X '.8 . .                                                         "
};
