/* XPM */
static char *_040644c1f8f42d6995a321ee2b855b5lyNUS3zamfCvNsAj[] = {
/* columns rows colors chars-per-pixel */
"64 64 222 2 ",
"   c None",
".  c #030203",
"X  c #090506",
"o  c #05050A",
"O  c #09060B",
"+  c #0B0B0B",
"@  c #08090A",
"#  c #130E0C",
"$  c #150809",
"%  c #18110D",
"&  c #060D13",
"*  c #0B0C12",
"=  c #0B0F1A",
"-  c #09131C",
";  c #081018",
":  c #131212",
">  c #1A1414",
",  c #1C1B1B",
"<  c #181916",
"1  c #150D11",
"2  c #230D0C",
"3  c #2B1D14",
"4  c #211D1D",
"5  c #231814",
"6  c #361B17",
"7  c #2D1C0F",
"8  c #25211E",
"9  c #2C231D",
"0  c #2D2313",
"q  c #372619",
"w  c #121E26",
"e  c #0C1A27",
"r  c #0C222D",
"t  c #16242C",
"y  c #0D2C3B",
"u  c #0A2633",
"i  c #112B35",
"p  c #1E323A",
"a  c #242323",
"s  c #2A2522",
"d  c #2E2C2B",
"f  c #2A2928",
"g  c #362D28",
"h  c #39312C",
"j  c #353433",
"k  c #3C3634",
"l  c #293234",
"z  c #591D1C",
"x  c #4D1918",
"c  c #462A17",
"v  c #4C341D",
"b  c #4D3B1A",
"n  c #593918",
"m  c #633D1C",
"M  c #60341D",
"N  c #442B23",
"B  c #483827",
"V  c #553C25",
"C  c #563A28",
"Z  c #433D3A",
"A  c #453B35",
"S  c #512220",
"D  c #762929",
"F  c #693224",
"G  c #5D4119",
"H  c #6B4419",
"J  c #754C1D",
"K  c #7B4B1B",
"L  c #4B442A",
"P  c #5E4428",
"I  c #4C443C",
"U  c #5A4F3D",
"Y  c #634323",
"T  c #6A4828",
"R  c #774C23",
"E  c #7B5626",
"W  c #685F2E",
"Q  c #0D384C",
"!  c #123242",
"~  c #0E3D53",
"^  c #0E445B",
"/  c #134259",
"(  c #2B4A53",
")  c #0D4B64",
"_  c #0B4E6C",
"`  c #134C64",
"'  c #0D546D",
"]  c #155268",
"[  c #0C5876",
"{  c #125A74",
"}  c #125C7B",
"|  c #145773",
" . c #325E72",
".. c #15607C",
"X. c #08607C",
"o. c #454544",
"O. c #4C4543",
"+. c #4D4B4C",
"@. c #554C47",
"#. c #585859",
"$. c #57524F",
"%. c #675C57",
"&. c #7D4641",
"*. c #73645D",
"=. c #676666",
"-. c #786C65",
";. c #747374",
":. c #96282B",
">. c #8F2E2F",
",. c #A62B2C",
"<. c #BC3233",
"1. c #AE2F30",
"2. c #C93334",
"3. c #DE3233",
"4. c #D63738",
"5. c #E33133",
"6. c #E73238",
"7. c #85521A",
"8. c #945E1D",
"9. c #9A5D16",
"0. c #8B4C14",
"q. c #A46416",
"w. c #AB6512",
"e. c #AC6914",
"r. c #AB661B",
"t. c #AB6A1A",
"y. c #A4661A",
"u. c #B16817",
"i. c #865724",
"p. c #916D2B",
"a. c #877169",
"s. c #887A72",
"d. c #93756E",
"f. c #A6706B",
"g. c #9A8131",
"h. c #A8872A",
"j. c #B88D23",
"k. c #DBB41C",
"l. c #C3A532",
"z. c #E5BB23",
"x. c #F3C516",
"c. c #EDC02E",
"v. c #BE9E44",
"b. c #93837A",
"n. c #84817F",
"m. c #0E5F81",
"M. c #0C6C8E",
"N. c #096688",
"B. c #126C8D",
"V. c #166787",
"C. c #0B6D94",
"Z. c #086D97",
"A. c #126D94",
"S. c #0C7296",
"D. c #0B759B",
"F. c #08789D",
"G. c #127395",
"H. c #12739C",
"J. c #11728B",
"K. c #276984",
"L. c #0576A3",
"P. c #037AA5",
"I. c #0A7AA3",
"U. c #047BA9",
"Y. c #097AAA",
"T. c #0976A4",
"R. c #1074A0",
"E. c #9B8C84",
"W. c #948B83",
"Q. c #9E9089",
"!. c #9D9A99",
"~. c #A2938B",
"^. c #A19086",
"/. c #AD9D93",
"(. c #A69E99",
"). c #B29E94",
"_. c #B4A196",
"`. c #B5A59C",
"'. c #BBA69B",
"]. c #BAA598",
"[. c #AFA39B",
"{. c #BEADA3",
"}. c #A3ABB8",
"|. c #BCBBBB",
" X c #ACA8A6",
".X c #C9B49D",
"XX c #C2AEA3",
"oX c #C4B1A6",
"OX c #C6B4AA",
"+X c #C9B6AA",
"@X c #CDB8AC",
"#X c #CBB4A7",
"$X c #D3BBAD",
"%X c #CEBCB2",
"&X c #D8BFB2",
"*X c #D5C1B5",
"=X c #D6C4BA",
"-X c #DEC8BB",
";X c #DBC3B5",
":X c #E3CBBD",
">X c #EACFBD",
",X c #EBD0BE",
"<X c #D1C7C2",
"1X c #E4CEC1",
"2X c #EACEC2",
"3X c #ECD4C4",
"4X c #ECD6CA",
"5X c #E5D0C3",
"6X c #F1D7C5",
"7X c #F6D9C6",
"8X c #FADBC6",
"9X c #F6DBCB",
"0X c #FADDCA",
"qX c #F1D7C9",
"wX c #F7DFD0",
"eX c #F9DED1",
"rX c #FBE0CE",
"tX c #FBE1D1",
"yX c #DAE4F0",
"uX c #FDFDFD",
"iX c #F5F6F6",
"pX c #E6E6E6",
/* pixels */
"                                                                                                                                ",
"                                                                                                                                ",
"                                                                                                                                ",
"                                                                                                                                ",
"                                                      : d g a s *./.4                                                           ",
"                                                a 4 s.5XrXtX0X9X0X9X8                                   d o.=.o., d             ",
"                                            # 9 ;X9X0X0X0X0X8X8X9X8X/.+                         , j a |.uXuXuXuXiX!.,           ",
"                                          : E.9X8X9X-X@X0X0X0X8X;X-X0X%.                      o.yX|.uXuXuXuXuXuXuXuX!.          ",
"                                        a OX0X0X0X+XoXqX9X0X0X8X'.oX7X3X%                     }.yXiXiXuXuXuXuXuXuXuXuX#.        ",
"                                        Q.0X8XeX4X=X7X0X0X0X0X8X*.E.8X8X+X+                   }.a : g I A s v.(.uXiXuX+.        ",
"                                    , $.0X0X8X{.1X9X0X0X0X0X0X5X< , @X1X .N.!               < ~.,X7X0X0XrX9X.X XpXn.pX=.        ",
"                                  %.3X6X0X8X8XQ.).0X0X0X0X0X0X%.    s K.Y.I.Y.&             -.0X0X0X0X2X&X{.0X4X(.iX<XZ         ",
"                                O.qX0X0X0X8X0X9X0X0X8X0X0X0X_.+     f I.I.) u *           O XX0X0X0X7X-XXX/.&X8X9X#. X;.  , +.  ",
"                                OX8X0X0X0X0X8X8X0X0X0X0X8X1X4       a V.~ . . X >         X $X0X0X0X8XoX,X8X*.0Xs.%.!.s h p.g.  ",
"                              j eX0X8X0X0X0X0X0X0X0X0X0XwXk           w - . . $ <.1 6 4   < ).9X0X0X8X0X0X_.W.'.d f     9 z.x.L ",
"                              : $X0X0X0X0X0X0X0X0X0X0X0XO.,     , :       . . X 5.$ 2.2.,.S %./.$X0X0X0X8X9X=X~.< W.,   I p.j.f ",
"                                #X0X0X0X0X0X0X0X0X0X8X$.      Z `.:X).k   + . X 5.$ <.3.5.2.)._.3X0X4X@X*X=X3X8X{.@X:XO.I s     ",
"                                /.8X0X0X0X0X0X0X8X8X6Xo.  d `.wX0X0XeX=X`.@.. X 3.2 <.:.z d.~.1X6X7XoX^.-.].]./.%X7X0Xs.rX%.    ",
"                                4 _.0X0X0X0X0X0X0XwX6XO.  [.8X0X0X0X0X0X8X7Xh . 5.z ,.'.E.qX;XE.#X0XoXs.0X7X8Xa.3X8X#X%X0XoX    ",
"                                  : _.0X0X0X8X0XqX/.^.k %.0X0X0X0X0X0X0X8X8X{.. :.1.2 3X3X0XeXa.+X0X8X0X0X0X8X0X_.E.1X0X8X'.    ",
"                                    A 5X0X0X0X8Xb.:   % 3X0X0X0X0X0X0X0X8X0X^.. $ 6.2 9X0X0XE.1.d.8X0X0X0X0X0X0X0X0X0X:X3Xj     ",
"                                      + 8 _.:X=XX     @.rX0X0X0X0X0X0X0X0X0X).. o ,.:.2X8X'.6 5.:.=X0X0X0X0X0X0X8X8X9X!.s       ",
"                                          < : +       `.0X8X0X0X0X0X0X0X0X6Xb.. . X 3.&X8X`.D >.6 > +X8X0X0X0X0X0X7XZ           ",
"                                                    , :X8X0X0X0X0X0X0X0X0X8X=Xo . . x f.9XN z ,.4.3.,.h =X0X9X8X4Xs             ",
"                                                      +X8X0X0X0X0X0X0X0X0X0X9X@.. X + D &.<.D 2 X X # >.X : : a                 ",
"                                                      < 1X;X0X0X0X0X0X0X8X0X0X3X+ o * h.O . . . . . . . <                       ",
"                                                        j @.9X8X8X3X9X0X0X0X0X0XA . o o . . . #.. . . .                         ",
"                                                          + &X0X0XXX{.8X0X0X0X0X*Xo l.* o . O.d . . . .                         ",
"                                                          < b.0X0X-X{.8X0X0X0X8XrX* # . Q S.C.y . . .                           ",
"                                                            8 9X0X0X:XOX:X0X0X0X0Xg.X -  .V.U.F.& . .                           ",
"                                                            + ^.8X0X9XE.1X0X0X0X0Xh -.'.9X{.C.U.r +                             ",
"                                                              4 -X0X0X9X-.3XeX9X0X1X0X0X0XtXK.D.-                               ",
"                                                              + h :X0X0XrX8X0X0X8X9X8X0X0XoX] y +                               ",
"                                                              . . a +X9X8X0X8X0X0X0X:XQ.A . o X                                 ",
"                                                    + +   + . . . . X -.;X0X0X6X/.I . . . . . +                                 ",
"                                          * & ;   . . . . . . . . . . . . E.@X: . . . . . . .                                   ",
"                                      : w { D.V.& . . . . . . . . . . . . . . . . . . . . .                                     ",
"                                    + Q I.P.L.j * . . . . . . . . . . . . . . . . . . . .                                       ",
"                                    e I.U.P.L.U * . . . . . . . . . . . . . . . . . . .                                         ",
"                                  + { U.U.P.P.( b . . . . . . . . . . . . . . . . . .                                           ",
"                                  l F.M.U.P.P.H.c.@ . . . . . . . . . . . . . . . .                                             ",
"                                  , ..H.U.P.P.U.W k.% . . . . . . . . . . . . . +                                               ",
"                                  Q ` U.T.P.P.U.A.z.z.A O . . . . . . . . . . +                                                 ",
"                                @ M./ U.P.P.P.P.P.( z.0 . . . . . . . . . .                                                     ",
"                                t Y.) U.P.P.P.P.U.H.L j.: . . . . . . . +                                                       ",
"                    * y r       i U.N.} P.P.P.P.U.N.Z.M.X.' ! & . @                                                             ",
"              q V 3 B ] I.^ t w i U.L./ I.P.U.P.P.P.P.P.P.P.P.F.' u +                                                           ",
"            v v J T B 7...L.^ S.^ m.Y.F.) C.I.P.L.P.P.P.P.P.P.U.U.I.' w                                                         ",
"          3 H E J n V 8.A L.M.m.I.| [ I.L.' [ [ F.P.P.P.P.P.P.P.P.L.P.M.t                                                       ",
"          P n m H R v 8.H Z.L.[ L.U.{ N.L.I.I./ G.P.P.P.P.P.P.P.P.P.P.U.B.i                                                     ",
"        5 q K Y P v B 9.7.N.U.{ U.P.U.` I.P.P.H.; C.U.P.P.P.P.P.P.P.P.P.U.T.+                                                   ",
"        9 B v V v V V q.7.N.U.' P.P.U.F.' P.P.^   @ ] D.U.P.U.P.P.P.P.P.P.L.+                                                   ",
"      3 C n H E Y c Y e.n F.D.[ L.P.P.U.} P.U.=   + | Q ) N.C.S.F.P.P.P.P.L.:                                                   ",
"      h C T J G V T q.e.( L._ C.U.P.P.U.I.U.} < + ] U.U.F.| J.I.L.P.P.P.P.L.-                                                   ",
"    s B c n b m i.8.w.7.C.F.) I.P.P.P.P.U.D.&   . T.L.L.U.P.U.P.P.P.P.P.P.F.O                                                   ",
"    9 C R T Y N c y.y.} R./ L.P.U.P.P.P.T.y     e U.U.P.P.P.P.P.P.P.P.U.P.[ # +                                                 ",
"    7 H V v H c 8.0.c g > _ B.G.G.G.m.C.G.:   < I.B.U.F.P.P.P.P.P.P.U.L.M.q t.u.R a                                             ",
"    , N v M m n r.r.r.w.q     : a     *     : T H.B.| U.U.P.P.U.U.U.U.S.S.j w.t.w.#                                             ",
"  . + 9 B v v q R w.r.K + : < < < < < < , 4 0 u.v A.F.} ) m.S.D.N.) { D./ T 7.t.u.9                                             ",
"+ . . . o % q h P T C % . . . . . . . . . . q w.r.R ~ I.I.D.S.C.F.R.' L q.8.i.w.8.5 + a .                                       ",
"  + + . . . . . o . . . . . . . . . . . . . # m y.r.9.R B p p l B J 9.e.w.q.m H 3 . . . . . .                                   ",
"                                      + + . . 3 P J 9.t.t.e.e.t.r.u.t.q.K T g > . : . <                                         ",
"                                        + + . . . > 5 6 V H G n n c 9 9 9                                                       ",
"                                                                                                                                "
};
