/* XPM */
static char *_c49d2a1488a42f2c5db5ab56262521d7cDFTh5GMxe7iNKO[] = {
/* columns rows colors chars-per-pixel */
"64 64 175 2 ",
"   c None",
".  c #010101",
"X  c #060904",
"o  c #090E06",
"O  c #0B0C0B",
"+  c #0C1207",
"@  c #0E140A",
"#  c #111709",
"$  c #131C0B",
"%  c #131313",
"&  c #181717",
"*  c #151D12",
"=  c #181817",
"-  c #1C1C1B",
";  c #16210D",
":  c #19250E",
">  c #1E2C0F",
",  c #172014",
"<  c #192412",
"1  c #1D2B12",
"2  c #1D291A",
"3  c #1A2518",
"4  c #212F10",
"5  c #20201F",
"6  c #202F1C",
"7  c #243413",
"8  c #253817",
"9  c #2B3D15",
"0  c #24341D",
"q  c #27391E",
"w  c #293C1C",
"e  c #242423",
"r  c #282827",
"t  c #2C2C2B",
"y  c #2A3D21",
"u  c #353433",
"i  c #383837",
"p  c #3C3C3B",
"a  c #403F3E",
"s  c #2E4216",
"d  c #2E441C",
"f  c #31471B",
"g  c #334B1D",
"h  c #3B541D",
"j  c #37501B",
"k  c #2D4222",
"l  c #304723",
"z  c #334B24",
"x  c #375125",
"c  c #385424",
"v  c #3D5B25",
"b  c #3A5628",
"n  c #3F5D2A",
"m  c #3F5D29",
"M  c #3D5A29",
"N  c #405B1F",
"B  c #415D20",
"V  c #405F2B",
"C  c #405F2B",
"Z  c #41403F",
"A  c #446223",
"S  c #486723",
"D  c #4C6D25",
"F  c #42612B",
"G  c #436529",
"H  c #45662A",
"J  c #42632C",
"K  c #43642C",
"L  c #45662D",
"P  c #43632C",
"I  c #46692C",
"U  c #4A6E2E",
"Y  c #496C2E",
"T  c #4E7026",
"R  c #4D722F",
"E  c #4E742F",
"W  c #4B702E",
"Q  c #507327",
"!  c #527628",
"~  c #557A2A",
"^  c #4B6F30",
"/  c #4B7030",
"(  c #4D7331",
")  c #4F7531",
"_  c #4D7231",
"`  c #507732",
"'  c #507732",
"]  c #517932",
"[  c #527B33",
"{  c #527932",
"}  c #557E33",
"|  c #557E34",
" . c #547D34",
".. c #537B33",
"X. c #454543",
"o. c #494847",
"O. c #4D4C4B",
"+. c #51514F",
"@. c #555453",
"#. c #595957",
"$. c #5F5F5D",
"%. c #605F5D",
"&. c #61615F",
"*. c #646361",
"=. c #686765",
"-. c #686866",
";. c #6D6C6A",
":. c #706F6D",
">. c #71706E",
",. c #747471",
"<. c #787775",
"1. c #7A7A77",
"2. c #7C7B79",
"3. c #5D852D",
"4. c #568135",
"5. c #578235",
"6. c #558034",
"7. c #568135",
"8. c #588335",
"9. c #598536",
"0. c #598436",
"q. c #588435",
"w. c #598536",
"e. c #608A2F",
"r. c #638D30",
"t. c #669131",
"y. c #699633",
"u. c #6C9A34",
"i. c #709F36",
"p. c #73A538",
"a. c #77AA3A",
"s. c #7AAE3B",
"d. c #7BB03C",
"f. c #80807D",
"g. c #858482",
"h. c #8D8C89",
"j. c #8A8987",
"k. c #92918E",
"l. c #959592",
"z. c #989795",
"x. c #999996",
"c. c #9E9D9A",
"v. c #A09F9C",
"b. c #A2A19E",
"n. c #A6A5A2",
"m. c #A8A7A4",
"M. c #AAA9A6",
"N. c #ACACA9",
"B. c #B0AFAC",
"V. c #B2B1AD",
"C. c #B5B4B1",
"Z. c #BAB9B6",
"A. c #BDBDB9",
"S. c #C1C1BD",
"D. c #C6C6C2",
"F. c #C8C7C3",
"G. c #CBCAC6",
"H. c #CDCCC9",
"J. c #D3D2CD",
"K. c #D6D5D1",
"L. c #D8D7D3",
"P. c #DAD9D5",
"I. c #DEDDD9",
"U. c #E0DFDB",
"Y. c #E3E2DD",
"T. c #E6E5E1",
"R. c #E8E7E3",
"E. c #EAE9E5",
"W. c #EEEDE8",
"Q. c #F0EFEA",
"!. c #F2F1ED",
"~. c #F6F5F1",
"^. c #F8F7F2",
"/. c #FCFBF6",
"(. c #FEFDF8",
/* pixels */
"                  . . G 9.9.9.9.9.v o v .           . . . . x +   + G 9.9.5.z 2 0 | 9.[ Y 2 K Y 2 @ . . # ( [ o .               ",
"          X $ ; . . . : 9.9.9.9.9.5.W 5.d $ .   . . . . . o v + . g 9.9.[ M c 6 c [ n 6 2 C ( q c z o 1 } R $ .                 ",
"          # G R c f f E 9.9.9.9.9.' l z 9.Y # . . . X $ . 1 [ + o } 9.5.z M 0 M Y y 2 2 n 8.5.Y z q z 5.[ $ .                   ",
"          . c 9.9.5.5.9.9.9.9.9.9.8.Y 6 k 9.v X o d : R . 7 9.c ( 9.9.8.0 F k q 0 0 0 c | 9.n 0 2 l 5.9.2 . .                   ",
"            . Y 5.9.9.9.5.Y [ 9.k 2 M 0 2 c 9.w @ | | 5.[ 9.9.9.9.9.9.9.9.L 0 0 _ l q [ 2 y 2 2 y 5.[ 0 0 8 o .       . . .     ",
"            . $ d G 9.9.| k z Y L 2 q k F [ 9.0 2 y y b 9.9.9.9.9.9.9.9.9.9.9.9.c 2 y K 0 y 2 l 5.c q z | z k 8 . X < 8 d #     ",
"    . . . . 8 c g + G 9.9.[ y 0 y 2 n | | z Y 0 y 2 2 2 9.9.9.9.9.9.9.9.9.9.9.9.n J ( 9.Y ( C 5.[ 0 F 9.l 2 z 5.c v [ 9.[ #     ",
". . . X 1 Y | 9.[ 0 2 k [ 9.| [ [ [ 5.9.5.c 6 2 _ 2 2 0 c L 0 [ y 5.9.9.9.| 9.9.5.9.9.9.9.9.9.9.b l 5.y 2 z 5.9.9.9.9.9.b .     ",
". . . . . . f | 2 z c 0 0 y ' 9.9.9.9.9.9.9.c 2 y z 2 y l q 0 [ J q k | ( z | l y 9.9.9.9.9.9.9.9.9.5.y k 9.9.9.9.5.z 2 , .     ",
"  . . .   . # c 0 R c } | J 9.9.5.F ' 9.9.9.9.L q 0 0 2 9.9.z ' 0 2 k | k y y z Y Y 9.9.9.9.9.9.9.9.5.9.9.5.9.v x d z c 2 o .   ",
"        . $ G F @ $ . 1 9.9.9.9.| k y z 5.9.9.9.z n l 2 9./ c z 2 2 0 l 2 2 2 c 0 z 9.[ z b [ 9.9.9.g 7 f z w X X x W 9.F n $ . ",
"      . o [ w o .     . $ 9.9.9.9.| _ 0 0 0 I 9.L b z 2 9.[ l 2 2 2 2 2 0 z 2 2 0 [ z 0 0 L 8.9.9.9.F X @ z . : . + + # | [ 1 . ",
"    . o [ d .       X X I 2 6 6 5.| [ [ [ 2 2 n ..9.9.5.9.[ k [ 2 2 2 y 9.F 2 0 ( 2 2 / 9...[ C Y o . . I E E E I o . . . . .   ",
"    . g : .       o d k 2 0 b y z y 2 2 M 6 2 2 0 ^ 9.9.9.5.| J 2 2 k | 5.z y | y 2 z F n 0 2 y l 7 7 $ . . . . . .             ",
"      .       . . < 6 z 2 0 0 2 z F F y 2 2 6 2 2 z 9.9.9.9.9.0 6 L ..9.[ k ' L 2 2 y 2 2 k * : 1 . ; $ . .                     ",
"            . . x o < @ X @ . * 6 0 0 0 ' c 2 2 Y y [ 9.9.9.9.[ [ 9.9.9.y c 9.0 2 2 2 M / , . A.l.. .                           ",
"          . o w . . . . & 5 e & X 3 2 2 0 [ l 2 2 0 C 9.9.9.} ( 0 5.[ 8.9.9._ 0 2 2 M [ 3 O x./.(.m.O                           ",
"        . @ d X .     . ,.(.(.F.@.o < 0 y 0 0 k 2 2 y | 8.I q 2 k M k | 9.9.[ q 2 8 x : O h.!.(.(.Y.X.                          ",
"        X g #           % Z.(.(.!.x.u @ < o @ 8 1 * q } ..0 k 6 y k W I g 8 7 $ @ O @.x.m.(.(.(.~.g.O                           ",
"        . @ .           . t D.(.(.(.R.I.h.r . . X . X + o . X X X X + X . % &.G.I.U.W.(.(.(.(.!.u O                             ",
"          .               . . Z P.Y.!.(.(.(.(.(.(.(.(.(.Y.Y.Y.Y.Y.Y.!.(.(.(.(.(.(.(.(./.Y.A.u o $ 7                             ",
"                            . 4 > % $.x.b.D.!.(.(.(.(.(.(.(.(.(.(.(.(.(.(.(.(.(.E.A.c.k.- : s e.s.S                             ",
"                            . B u.! D s o r @.$.$.$.;.2.h.l.b.b.b.b.l.1.&.$.$.$.O.- @ N T t.d.d.d.D                             ",
"                            . + d.d.d.a.u.u.3.f $ X . X O O O O O O O X . + 7 T u.u.u.s.d.d.d.d.d.D .                           ",
"                            . . u.a.d.d.d.d.d.d.d.d.d.d.d.d.d.d.d.d.d.d.d.d.d.d.d.d.d.d.d.d.d.p.Q . .                           ",
"                              . O h 3.s.d.d.d.d.d.d.d.d.d.d.d.d.d.d.d.d.d.d.d.d.d.d.d.d.d.s.3.4 r p .                           ",
"                              . n.;.$ 9 B a.d.d.d.d.d.d.d.d.d.d.d.d.d.d.d.d.d.d.d.d.d.d.i.f # g.F.m.O                           ",
"                              . T.!.U.@.X @ 7 u.d.d.d.d.d.d.d.d.d.d.d.d.d.d.d.d.d.s.r.; + r C.^.(.D.r                           ",
"                              . G.(.(.(./.n.r - . $ Q y.u.u.u.u.u.u.u.u.u.t.3.h . O - r S.(.(.(.(.T.o.                          ",
"                              . x.(.(.(.(.(.(./.>.$.$.$.o.u u u u t a o.$.$.$.$.*.x.!.(.(.(.(.(.(.!.@.                          ",
"                              . X.(.(.(.(.(.(.(.(.(.(.(.T.J.J.J.J.H.I.R.(.(.(.(.(.(.(.(.(.(.(.(.(.~.#.                          ",
"                              . 5 (.(.(.(.(.(.(.(.(.(.(.(.(.(.(.(.(.(.(.(.(.(.(.(.(.(.(.(.(.(.(.(.^.#.                          ",
"                              . 5 I.p . Y.(.(.(.(.(.(.(.(.(.(.(.(.(.(.(.(.!.I./.(.(.(.(.(.S.2.Q.X ;.#.                          ",
"                              . 5 c.O O.- P.(.P.c.n.Y.(.V.(.(.(.(.(.(.(.(.v.. z.(.(.(.(.(.c.X U.p #.#.                          ",
"                              . 5 c.O K.,.J.Y.o.% t b.(.- K.(.(.(.(./.(.(.c.& % (.(.(.(.(.n.O I.b.#.#.                          ",
"                              . 5 m.O #.!./.;.. I.2.& H.% S.(.(.(.V.r Y.W.O.<.= l.(.(.Y.@.C.& I.A.@.@.                          ",
"                              . 5 E.O.. R.(.$.. (.c.. g.O n.(.x.E.(.$.n.Y.& k.X.5 (.Z.% % t & . % O.O.                          ",
"                              . 5 (.;.. Z ~.#.O /.k.. t O h./.- X.(.$.. U.X *.l.- Y.%.X n.X.% @.n.i i                           ",
"                              . 5 (.J.& % m.O.- Q.#.u % X 1.!.- - T.$.. I.. X - X ;.o.r /.x.O U.l.- -                           ",
"                              . 5 (.(.r . @.O.. c.O l.- . >.D.& . ;.$.. I.. h.I.e e e r (.c.t R.Z.% .                           ",
"                              . e !.W.G.. O.O.. - ,./.u . ;.c.O . O.O.. I.& C.(.#.% % - (.m.c./.(.c..                           ",
"                              . X.b.O.J.% r r . !.(.(.=.. :.z.O X - . . R.;.L.(.b.O O r (.(.(.(.(.c..                           ",
"                              . h.I.o.i % u u . (.(.(.A.X 1.Z.% - 2.. . /.!.(.(.W.2.- % (.(.(.(.(.c..                           ",
"                              . G.(.E.I.G.T.m.O (.(.(.!.O l.!.- 5 m.O . (.(.(.(.(.R.o.. I.n.W.(./.z.                            ",
"                              . !.(.(.(.(.(.(.=.(.(.(.(.r A.(.5 r (.,.-.(.(.(.(.(.(.<.O O ,.(.(.^.f.                            ",
"                              . (.(.(.(.(.(.(.(.(.(.(.(.P.(.(.,.h.(.(.(.(.(.(.(.(.(.(.g.c.(.(.(.E.u                             ",
"                              . (.(.(.(.(.(.(.(.(.(.(.(.(.(.(.(.(.(.(.(.(.(.(.(.(.(.(.(.(.(.(.(.I..                             ",
"                            . . (.(.(.(.(.(.(.(.(.(.(.(.(.(.(.(.(.(.(.(.(.(.(.(.(.(.(.(.(.(.(.(.I..                             ",
"                            . . Y.(.(.(.(.(.(.(.(.(.(.(.(.(.(.(.(.(.(.(.(.(.(.(.(.(.(.(.(.(.(.(.P..                             ",
"                            . # & m.T.(.(.(.(.(.(.(.(.(.(.(.(.(.(.(.(.(.(.(.(.(.(.(.(.(.(.(.(.(.c..                             ",
"                            . T A * o.C.(.(.(.(.(.(.(.(.(.(.(.(.(.(.(.(.(.(.(.(.(.(.(.(.(./.b.&.r .                             ",
"                            . u.s.u.9 % t S.(.(.(.(.(.(.(.(.(.(.(.(.(.(.(.(.(.(.(.(.(.(.N.- O # . .                             ",
"                            . u.d.d.d.d.# + . V.I.I.Y.!.(.(.(.(.(.(.(.(.(.(.(.E.I.K.o.X @ f a.s..                               ",
"                            . y.d.d.d.d.d.t.g s $ . O *.c.c.c.c.c.c.c.c.c.c.c.p . > s B d.d.d.u..                               ",
"                          . . 7 a.d.d.d.d.d.d.s.r.D D D D S A g 7 7 7 7 j S D D Q u.d.d.d.d.d.! .                               ",
"                        . @.I.- : a.d.d.d.d.d.d.d.d.d.d.d.s.s.a.p.p.p.p.a.s.s.d.d.d.d.d.d.d.u.$ .                               ",
"                        % C.(.(.- > e.s.d.d.d.d.d.d.d.d.d.d.d.d.d.d.d.d.d.d.d.d.d.d.d.d.s.r.1 r O .                             ",
"                        . *.(.(.E.$.- A 3.d.d.d.d.d.d.d.d.d.d.d.d.d.d.d.d.d.d.d.d.d.d.d.S < +.W.o..                             ",
"                          e S.(.(.!.C.u # f r.d.d.d.d.d.d.d.d.d.d.d.d.d.d.d.d.d.d.d.~ f % h.Y.(.X .                             ",
"                            % B.(.(.(.R.H.u o @ > ~ d.d.d.d.d.d.d.d.d.u.! h 9 : @ @ X r Y.^.(.O..                               ",
"                            . . u T./.(.(.(.T.;.5 - - - - - - - - - - 5 5 5 5 5 X.B.!.(./.R.#..                                 ",
"                                . r j.K.(.(.(.(.(./.Y.I.Y.Y.Y.Y.Y.T.^.(.(.(.(.(.(.(.(.A.l.u .                                   ",
"                                    . u *.b.W.(.(.(.(.(.(.(.(.(.(.(.(.(.(.(.(.(.U.g.$.- .                                       ",
"                                        . O - 5 e X.h.G.(.(.(.(.(.~.J.N.;.i 5 5 - X .                                           "
};
