/* XPM */
static char *_26afd7717e34f248bd5a0d2d64d676bDoQihtORCRJMj9FG[] = {
/* columns rows colors chars-per-pixel */
"64 64 183 2 ",
"   c #34271C",
".  c #332A25",
"X  c #3B2D25",
"o  c #372E28",
"O  c #382D28",
"+  c #3D3126",
"@  c #3C322A",
"#  c #412E23",
"$  c #413427",
"%  c #42362C",
"&  c #45382D",
"*  c #4C3A2E",
"=  c #413630",
"-  c #453B33",
";  c #4A3D33",
":  c #4E4134",
">  c #4D433A",
",  c #514336",
"<  c #5C4835",
"1  c #53453B",
"2  c #53483D",
"3  c #5B4C3E",
"4  c #60503F",
"5  c #554B43",
"6  c #5A4D42",
"7  c #5B4F48",
"8  c #5C5246",
"9  c #5D534A",
"0  c #645446",
"q  c #695747",
"w  c #64564B",
"e  c #645A4D",
"r  c #6B5B4C",
"t  c #665B52",
"y  c #6A5E53",
"u  c #715F52",
"i  c #6F604F",
"p  c #76614E",
"a  c #6C6154",
"s  c #6D6459",
"d  c #6F685C",
"f  c #736354",
"g  c #7A6552",
"h  c #7D6957",
"j  c #72665B",
"k  c #796658",
"l  c #746A5E",
"z  c #7B6B5C",
"x  c #756C62",
"c  c #796E63",
"v  c #796F68",
"b  c #7B7165",
"n  c #7E7469",
"m  c #826B57",
"M  c #836D5C",
"N  c #86715D",
"B  c #8A725E",
"V  c #90765E",
"C  c #816F61",
"Z  c #847363",
"A  c #8B7563",
"S  c #877867",
"D  c #8E7965",
"F  c #81766A",
"G  c #8D7769",
"H  c #84796D",
"J  c #8B7C6C",
"K  c #907764",
"L  c #937A65",
"P  c #9A7E67",
"I  c #937D6A",
"U  c #9A7F68",
"Y  c #867D71",
"T  c #897E72",
"R  c #9D8067",
"E  c #95816D",
"W  c #9A826C",
"Q  c #8B8275",
"!  c #8E8579",
"~  c #8F887B",
"^  c #948474",
"/  c #9B8572",
"(  c #948976",
")  c #9E8A75",
"_  c #91877A",
"`  c #938A7D",
"'  c #9C8C7A",
"]  c #9F907C",
"[  c #A1876E",
"{  c #A18570",
"}  c #A38B75",
"|  c #AA8F76",
" . c #A38E7A",
".. c #A88F7C",
"X. c #AC9176",
"o. c #A5917C",
"O. c #AB937C",
"+. c #AF997F",
"@. c #B1967D",
"#. c #B3997E",
"$. c #958D80",
"%. c #988F81",
"&. c #979081",
"*. c #9B9284",
"=. c #9E9689",
"-. c #A49482",
";. c #AA9681",
":. c #AE9983",
">. c #A19789",
",. c #A39A8C",
"<. c #AE9C8A",
"1. c #B39C84",
"2. c #B99E83",
"3. c #B39E89",
"4. c #A79E90",
"5. c #A89F90",
"6. c #B6A086",
"7. c #BBA186",
"8. c #B5A18B",
"9. c #BCA48C",
"0. c #BEA88F",
"q. c #A7A091",
"w. c #AAA293",
"e. c #B6A492",
"r. c #BBA691",
"t. c #B7A894",
"y. c #BEAA94",
"u. c #B5AC9D",
"i. c #BAAE9D",
"p. c #B8AFA0",
"a. c #C0A587",
"s. c #C1A68B",
"d. c #C3A98E",
"f. c #C4AD94",
"g. c #C9AF93",
"h. c #C2AE99",
"j. c #C6B096",
"k. c #CAB296",
"l. c #C5B19A",
"z. c #CCB59B",
"x. c #CEB99E",
"c. c #D0B79A",
"v. c #D1BA9E",
"b. c #C5B5A2",
"n. c #CBB7A1",
"m. c #CEBAA2",
"M. c #CEBEA9",
"N. c #D2BDA3",
"B. c #D1BEA8",
"V. c #D5C1A6",
"C. c #D9C1A6",
"Z. c #D6C3AA",
"A. c #D9C5AC",
"S. c #DCC8AE",
"D. c #CEC0B0",
"F. c #D6C5B1",
"G. c #D9C7B1",
"H. c #D7C9B3",
"J. c #DCCBB3",
"K. c #DBCBB6",
"L. c #D4C6B8",
"P. c #DECFB9",
"I. c #DECFBA",
"U. c #DFD0BB",
"Y. c #E0CEB5",
"T. c #E0CFB8",
"R. c #E1D0B7",
"E. c #E1D1BA",
"W. c #E3D3BD",
"Q. c #E1D5BE",
"!. c #E8D6BE",
"~. c #E8D8BF",
"^. c #E5D6C1",
"/. c #E8D7C1",
"(. c #E5D8C3",
"). c #E6D9C3",
"_. c #E9DAC3",
"`. c #E8DAC4",
"'. c #E9DBC5",
"]. c #EBDEC9",
"[. c #EEE1CD",
"{. c #F0E3CF",
"}. c #EFE3D0",
/* pixels */
"o.f u 7 H Y J 3.E F F F l o.f.j.l.l.k.g.d.J T T j l c c c c q l.H Y H j a s j s z @ x H H H H H H H H 8.].E.`.`._.Q.R.S.V.A.V.N.",
"l.^ ^ J j % & H F F F 7.f.j.j.j.j.f.d.1.S y.f.V.A.Z.l.s.Q Q l.x.z.n Y Y M.7.b Y Y Y _ P.b.Q.(.(.Q.@ H 6.) _.`.`._.Q.J.V.V.V.) N.",
"^ ^ ^ ^ 7.s.0.0.9.%  .1.f.j.f.j.f.d.K 3 Q m.m.3.6.2.3.7.H Q N.f.k.6.Q Q Q x T T K.U.E.U.U.Q.(.(.Q.A.t.= 3.3.`.b.(.E.8.Z.E.o.f. .",
"^ ^ X z.k 6.W 1.X.@ 2.9.f.f.f. .I : H Q Q Q f z w j Y Y ! ! T 0 t.;.Q ! Q Q Q L.U.U.U.Q.(.U.U.P.P.U.l.o ' :.3.} h.`.`.`.;.;. .) ",
": l.N.N.V.Z.Z.A.S.:.| I D B Z : H H ! m.N.N.Y T Y Q _ ^.l.K.A.Z $ 1 s _ _ Y ! y.K.U.U.(.(.U.] q ^.Q.z.' Y n :.;.o.) E E ) ) ^ S ",
"J M N.V.Z.Z.N.A.S.A.X.d.d.9.2.F Y l.N.N.N.N.N.x.%.%.P.K.K.K.H.m.m.Z.' ` _ b c l 8.P.P.^.(.Q.P.K.Q.(.Z.' Q =.H e b F T Y Y T ! H ",
"Q.P.} } } W I L I } q X.1.1.1. .@.x.N.N.N.N.x.x.y.` *.H.e.K.H.A.Z.N.- H.A.A.A.M.H -.t.h.M.P.P.P.U.Q.M.' Y ; ].].P.K.H.M.*.*.D.Q.",
"Q.Q.E.% q @ ; S W } j i >.,.,.*.:.G l.N.N.N.x.6./ 3.` *.^ A.H.A.m.t.! b Z.A.Z.;.%.%.H J T -.e.H.G.M.-.^ Y ].P.Z.K.H.H.A.%.*.(.^.",
"K.K.Z.A.Z.H Q n Q _ b r Q.(.(.Q.^ +.z.x.x.x.g ) S N.x.f.` f.y.f.:._ %.` Q A.1.! =.*.%.Q Y H > ' ' ;.' 9 U.Q.Q.Q.P.A.b.9._ * N.e.",
"H.Z.f.1.I O c (.`.`.`.`.].`.(.(.y.- } M D W @ Q F x.z.f.y.` -.;.! m.N.x.;.9._ ,.=.>.=.=.N.8.N.G H j t T t.9.3.3.3.:.<.^ h.`.W.^ ",
"^ G I E S Y E.^.(./.`.].`.`.(.Q.y.H Q H 6 a Q l.j f.) 9.&.*.` Q Z.N.N.N.N.N.N.,.,.,.>.V.V.Z.V.x.y.T H %.Q -.<.;.:.' ^ H ` f.y.r ",
"X G Z S ' _  .Z (.(.`.`.(.(.Q.m.f.c Q %.N.Q c N.V.N.V.N.f.%.*.Z.N.N.N.N.N.V.N.3.,.*.N.V.N.Z.V.N.8.x.f.` *.- H a H Y *.*.& ].(.o.",
"n.;.z.m.m..._ G f )  . .o.'  .o.) Q %.} 2.` x.l.V.N.V.V.k.x Z.N.N.N.@.N.N.N.N.6.*.e.V.V.N.N.m.f.m.x.x.j.z.t.Z.O.r =.=.Q.[.].].J.",
"U.m.z.y.I Y r l.f.O./ ) )  .) ^ T H Q T Q c z.Z.V.N.x.m.O.Y Q N.N.N.N.N.N.N.m./ ; ,.K.N.N.N.x.m.x.x.x.x.-.} ) o.,.,.[.}.[.^.Q.Q.",
"Q.Z.8.H H B.Z.N.n.l.e.>._ ! S l.z.l.N.m.x.z.7.z.} 8 n F Y ` ` 3.1.m.N.z.k.z.X.1 L -.Z.N.N.N.N.m.N.V.N.N.N./ 8 ,.4.q.`.Q.].Q.Q.Q.",
"P.J ;.5 M.Z.Z.N.n.i.w.*.z A.l.Z.A.A.A.A.Z.V.N._ ! ! M.Z.V.N.t _ O.;.l.l.z. ./ j T ~ -.N.N.N.N.N.N.N.N.N.x.I %.4.q.q.A.Q.^.Q.Q.Q.",
"Z.M.^ H ) N.m.N.K.Z.*.! Z.N.K.K.H.H.A.A.Z.Z. ._ ` N.Z.Z.Z.N.x.` Q T } 1.E E Q Q %.K.f.z.z.x.N.f.N.N.N.x.d.I ` N.V.x.B.F.^.Q.K.N.",
"h.h.Q n.P.U.Q.E.P.N.*.=.:.K.J.K.H.J.K.Z.A.V.; ! V.f.Z.V.N.N.N.W %.` Q 5 H Q ` ` 8.x.k.z.z.z.x.f.N.N.x.f.A A l.l.V.N.) y.m.K.G.Z.",
"_ ! ,.Q.E.Q.Q.Q.E.N.8 =.a r.A.N.Z.K.K.G.Z./ Q ; Z.V.N.N.f.2. .G ` ` %.%.` %.` ! o.x.x.x.z.z.z.x.x.x.f.D A Q r f.f.s.o.' *.<.8._ ",
"u.u.y.(.(.(.Q.Q.U.A.n.*.` Q E / ) O.3.) E 6 ! l X./ D L S H T j t ` %.K.x.` ` %.V.x.x.x.f.j.f.l.N D Z Z ! ` w.` ` ` `.<.`.(.Z.q.",
"u.i.i.9 J (.^.Q.Z.M.m.:.*.` _ -.' 1 Q Q Y T _ ! Y e H T T Q l.Z.x.W G.N.N.v.N.` +.l.z.z.8.B h N C j Q ! ,.n w.w.' ].].].(.(.(.G.",
"0 p.i.u.u.z.l.6.;.K.A.Z ` F.E.E.H.J.;.` ` Q `.`.h.Q.f.N.N.V.A.N.N.# A.N.N.N.N.v.! ) D z z z F T Q %.*.*.F.z.3 4.N.(.`.K.(.(.(.(.",
"/ p.p.i.u.u.J ' O.:.I 2 Q.Q.(.Q.K.H.m./ 9 M.[.[.E.J.S.A.Z.Z.Z.Z.V. .N.N.N.l.x.x.% ` T Q Q Q %.%.%.%.%.%.f.l.` *.f.o.Q.K.Q.Q.(.Q.",
"f u.u.u.u.u.u.e ` Q (.(.Q.P.^.Q.P.T.f.) (.[.[.[.].J.J.S.A.A.Z.Z.Z.0.y.m.N.N.l.1.E ` ` ` ` ` %.%.%.K.V.Z.Z.Z.z.3.%.Q f f.y.8.o.o.",
"w.u.u.u.u.u.c w.*.S `.(.(.^.Q.(.Q.Q.o.% J.{.[.[.`.Q.J.S.A.A.Z.Z.V.} W W D q 1 T T ` %.Z.Z.A.Z.J Z.E.Z.A.A.A.Z.:.>.w.%.%.5.S E *.",
"-.u.u.u.u.Q.(.H.j *.f.(.(.(.(.(.W.Q.O.H e.[.[.].`.(.K.A.Z.Z.o.g l.S Q Q Q _ _ ` ` ` n.l.V.V.V.v.f H.Z.Z.A.Z.N.X.2.q.w.w.*.`.w.t.",
"_.E.l.u.(.Q.(.P.A.E.>.3.1.1.1.;.6.W / H [.{.[.`.(.J.Z.f.Z.V.N.Z.V.Z ` ` K.Z.A.A.` ` Z.Z.V.V.V.N.& Z.Z.A.J.S.Z.N.0.,.q.w.[.].(.Q.",
"(.R.' w.`.S.(.(.^.Q.U.=.*.H H ( 1 _ Q H ;.[.[.`.Q.N.Z.Z.N.v.V.V.I u Q N.f.Z.A.A.Z.x.> N.N.N.N.9.Q N.D A.S.Z.Z.x.@.,.,.(.(.(.(.(.",
"(.Q.@ q.=.F.G.Q.Q.U.E.,.q.4.=.*.*.*.` 9 n.[.`._.E.Z.Z.v.v.N.N.E L H O.N.Z.Z.A.A.N.x._ - } @.O.} ` 3.l.f.M t.g W W ` ,./ (.(.(.(.",
"E.3.Q ,.q.>.*.; n.z.- ,.q.q.`.].Z *.%.Q l {.Q.Q.N.Z.Z.Z.N.x.f j H H Q o.V.V.V.Z.Z.D ! Q H c Q Q %.` j } ) W W z j 6 1 :.o.Q.Q.Q.",
"r.' Z E.f.f.`.(.; _ =.,.q.(.].].N.` %._ ; [.Q.Y.N.Z.} A S H Y ; K.Z.N.;  .9.g f.X.1.! %.].[.Y., ` $.` %.Q Y Y  .E.Z.3.*.Q t.t.y.",
"! (.].].].`.`.(.(.Q.k w.q.a ].`.E.^ =.%.8.].Z.N.W L - H H Y Y A.N.N.N.N.N.S E Q Q Q ` y [.`.(.H.) V.3 %._ _ ^ z.:.3.b ,.*.*.%.` ",
"q.' ].].(.(.(.y.K.E.E.H.@ 4.0.z.j.E ,.>.2 f I A z F c m.N.6 Q 3.N.V.N.N.N.N.N.! ` ` ].].].(.J.A.E f.N.V.V.Z.2.f.;. .>.,.F -.G.x ",
"Q. .].].`.`.(.`.(.(.J.l.J.o.,.` ` *.H T (.(.Z.H H y.x.x.x.l.I 9.N.N.N.N.x.v.m._ ` (.[.].`.K.J.A.A.V.V.A.A.A.0.A + ` =.U.(.(.(.(.",
"(.7.(.].`.].`.^.(.(.Q.J.1.;.%.E (._.(.(.(.E.A.@ ` Q T y 9 Z. .J J L N.N.N.v.T _ ].[.`.Q.J.S.V.m.A.A.Z.Z.A.Z.Z.Z.O.` *.(.(.(.E.(.",
"E.+._.`.`.`.(.Q.) Q.K.A...Q *.,.(.(.H.(.(.Q.Q.x.~ Q R.Z.A.A.Z.N.9 Y I f.z.Q _ ].[.].K.:.Z.Z.Z.Z.Z.A.Z.O.Z.V.V.Z.X.H ` 3.S.E.Q.Q.",
"E.Z.- (.(.(.Q.E.R.J.S...Q ` 4.r E.Q.P.l.Q.Q.E.N.1.! N.V.V.Z.V.V.N.! Q H Y Q ~ b `.`.S.Z.V.V.x.l.V.V.V.V.Z.x.m./ I n _ Z.K.K.Y.E.",
"J.H.; n.N.A.A.N.N.p  .T ` ,.,.,.b.(.(.(.(.Q.E.Z.T ` T 9.f.X.f.f H ` ` [.[.[.[.) 5 9.r.j.} 7.1.1.y.0.9.A E W W r b Q ! J.J.J.K.K.",
"z.) Y J 8 ;. .} } / % b.[.[.}.-.A.Q.Q.Q.K.N.N.@ T T ! H H S H ` ` ! ].].].{.{.[.7.n n 5 2.2.2.+./ W Z % $ X c F Q Q ` A.H.H.A.A.",
"I ; N.H Y Q f z ^.[.[.].].].M.J Y b 1.) E H H B.N.N.V.S.S.Z.J ` ` Q Q.Q.`.].]._.E.:.Q Q b Z O.n s A.J.J.J.S.Z.Z.Z.T $.; 1 Z ) } ",
"7.0.f.2 *.=.=.e `.].].`.E.].].].Y %.` ! ` ` m.V.N.v.Z.S.Z.Z.Z.V.` G m././.Q.E.E.E.I Q Q B Q Q 3.A.A.A.J.S.Z.z.Z.Z. .! ` n G G I ",
"T s >.(.[.[.!.F t.`.`.].`.U.3.3.2 *., N._ _ y.Z.Z.Z.A.S.Z.V.V.N.N._ J.W.Q.~._.R.Q.h.Y Q Q Q l (.A.A.A.S.A.A.A.Z.Z.' n ! _ _ a H ",
"Q.`.`.`.H.A.A.f 6.o.3.:. ./  .z H f.S.S.f.Q H o.Z.C.S.S.A.Z.Z.Z.9.! Y.S.J.(._._.Q.N.= T T H b ;.(.V.Z.Z.Z.Z.x.k.9.r b ! ! ! @ K.",
"(.`.`.(.(.Z.K.7.H } E I G c J ^ 2.V.S.S.A.A ! ; C.Z.N.Z.Z.Z.Z.f.x ! N.J.Q.Q.Q._.Q.N.X G A.z.9 n P.G.h.A 0.x.z.3.:.J x Q Z.J.J.Q.",
"Q.Q.Q.Q.Q.E.N.3.F Q Y H s H.J.Z.S.Z.S.S.A.0./ ` x.N.v.N.V.V.7.} H ` ! 0.z R.E.Y.W.o.x t.3.8.;.F b 1 h.6.o.) J T J J b M.S.S.J.E.",
"J.Y.Y.E.Q.Q.K.K.;.%.*.8.J.J.J.J.J.J.S.S.A.Z.d.> Q l...} M X.} x Y (.T.J.8.: l.y. .v Q F b j j  .H Y x c l x x h.t b ! A.A.S.S.J.",
"S.J.J.J.E.E.E.K.;._ %.N.N.J.Z.J.J.J.J.N.A.A.v.6.Q Q & F F n H ` n.`.J.E.T.n.0.O.n Q T m.k.f.A.A.6.A.Z.Z.3.c Y z M.m.Q Z.A.S.J.J.",
"S.V.S.J.E.Y.K.J.o.Q ` f.Z.A.A.S.J.J.S.A.Z.Z.v.} ! ` %.` ` %.` ` Z.Z.B.l.z.h.7.% n j S.J.J.J.J.S.S.A.Z.V.N.^ . c ^ ' n Z.N.S.S.J.",
"A.S.S.S.S.A.N.r.q ! _ } z.Z.x.A.A.S.J.Z.C.N.6.s ! ` %.%.` ` ` ! G m.N.z.l.8.+ x ) J.S.J.S.S.S.S.A.S.A.Z.N.3.J = Y Q ! O Z.A.A.S.",
"Z.A.A.Z.h.F F F 8 Q ! ! X.z.1.Z.Z.A.A.Z.N.X.@ ! _ X ` ` ` (._._.h.n G } x c Y.Z.S.Z.V.Z.A.A.V.v.A.A.Z.Z.m.l.6.6 x Q Q ! I Z.A.A.",
"Z.z.f.- n.A.A.Z.S.A.Z.M.% 6.k.z.z.N.v.2.M M @ `.1.A.f._ ` / :.Z.Z.z.z Q T o.K.Z.V.+.N.Z.A.Z.Z.A.Z.Z.Z.x.z.N.f.z ; Y c ! x Z.Z.l.",
"N.N.. H Z.A.A.A.Z.S.A.A.N.n +.6.6.1.A M M % B.A Z.A.N._ ( R.V.Z.Z.N.9.6.c Z.Z.1.f.m.x.x.Z.Z.Z.Z.C.9.1.z.l.} f.o.J H g.& ! H l.3 ",
"N.N.0.n Z.A.A.Z.Z.Z.A.Z.V.f.b c b k f n c 0.A.N.Z.Z.A.2.' Y.V.V.N.N.v.9.d % f.f.0.f.f.x.V.V.V.0.N.V.N.N.1.y.0.J 9 2.d.d.c Q N.N.",
"k.2.W ' . Z.Z.V.Z.Z.Z.N.N.f.1 Y Q Q ! ! n v.A V.V.Z.Z.7.N.R.V.v.v.N.v.d.y j T B N } +.j.k.l.N.N.N.N.N.d.0.2.F @ } c.v.v.O.j - x.",
"} A j x J ' N.N.z.N.v.z.2.W M Y Y T Q ! 5 v.M N.N.N.N.2.m.!.N.N.v.k.v.} 2 j T Y F s.W [   f.x.N.N.N.x.j.O.Z s W z.z.z.d.< t Q ; ",
"H H z.z.1.} c +.@.} [ z x c H N.V.N.1 Q e x.z.N.N.N.v.q X _.N.v.N.v.v.@.8 B.7.t H Z.s.d.d.X., z.N.N.x.} Z 5 d t t 9 j 2 J k.z.J ",
"s Z.l.z.z.d.1.c c c c <.H H f N.N.N.f.V.@ A B / N g h q * h.E N.v.k.W P j #.@.4 l N.d.d.k.f.@.K D L A q   c H H H j Q.v.z.z.k...",
"Z f.k.l.f.z.9./ H w 8.m.M H N.z.z.N.N.V.V.V.l.j x l x x x + f.z.A W r j n n c F n M d.k.z.z.k.{ X = x n F f.s.7.; Y P.z.c.z.k.f.",
"; l k.l.z.z.k.9.; n r / b :.f.7.l.N.N.N.N.V.A c x q k.G T x x l x x 9 9 w p s j s c X @.d.k.f.W z H F n z.c.c.z.7.H 0.s.g.m M f ",
"O.0 9.B l.k.f.M x H H H H ;.O.9.j.m.x.x.N.N.N H l.z.z.z.z.a.Y T Y g.z.d.V.N.v.z.z.[ b x W U L t 9.0 j.z.c.c.v.v.d.g . 7.W m m 8 ",
"z.} l 1.O.I ; w l.z.l.l.9.l >  . .} ) } O.L 0 H k.d.z.z.z.k.L T Z.N.d.d.N.c.z.z.k.k.I b c s N k.k.% k.k.z.k.g.v.#.P 0 W f.z.z.x.",
"Z.2.s n t j N.k.k.k.k.l.k.W H F F j 5 D D A F % z.z.z.z.z.z.2.B 9.v.N.N.z.c.s.z.k.k.L t N.k.k.k.9.f.s.g.f.#.X.& 2 q z.N.N.N.S.S.",
"N.x.M j n n A.k.f.f.k.k.@.I T ;.9.l.k.2.G n F f.f.k.k.k.k.s.R B 2 9.k.v.v.N.v.z.z.s.B = q 1.k.g.k.f.| l j s j l.k.E.E.S.A.S.S.Z.",
"N.f.I j H n N.0.6.1.} N r T 0.l.z.z.k.f.f.0.H n U U P P L B N c Y x 1.| X.| | | @.V B 0 F H t P P L f b *.W.v.E.Q.Q.Y.C.Z.A.Z.Z."
};
