/* XPM */
static char *_c53e708e0e64015d29c678eec9bc9591MsnKdhqBitMcUY1[] = {
/* columns rows colors chars-per-pixel */
"64 64 244 2 ",
"   c None",
".  c #040C01",
"X  c #040A07",
"o  c #041403",
"O  c #061B01",
"+  c #0B1C02",
"@  c #091807",
"#  c #11170F",
"$  c #062300",
"%  c #0B2401",
"&  c #062A00",
"*  c #0C2B00",
"=  c #0C250B",
"-  c #122603",
";  c #132C02",
":  c #1A2D03",
">  c #12240B",
",  c #152B0C",
"<  c #0D3301",
"1  c #0D3A00",
"2  c #0E380E",
"3  c #143302",
"4  c #1B3503",
"5  c #143B01",
"6  c #1C3C02",
"7  c #1C340B",
"8  c #1E3B0A",
"9  c #173C0A",
"0  c #172C11",
"q  c #193511",
"w  c #0D2C12",
"e  c #233E03",
"r  c #21350C",
"t  c #233D0C",
"y  c #273903",
"u  c #232B17",
"i  c #263817",
"p  c #313F17",
"a  c #1A3725",
"s  c #283921",
"d  c #48340D",
"f  c #0C4100",
"g  c #154301",
"h  c #1D4302",
"j  c #144A01",
"k  c #1D4B03",
"l  c #1C420B",
"z  c #1E4B08",
"x  c #1E5302",
"c  c #1B5405",
"v  c #1E4413",
"b  c #1B471A",
"n  c #1E571A",
"m  c #0F5204",
"M  c #234403",
"N  c #2B4602",
"B  c #244B03",
"V  c #2B4D03",
"C  c #25440B",
"Z  c #244A0C",
"A  c #2B4C0B",
"S  c #2A430A",
"D  c #314E04",
"F  c #314A09",
"G  c #245404",
"H  c #2C5404",
"J  c #255B03",
"K  c #2C5B04",
"L  c #2C530A",
"P  c #235B0A",
"I  c #2C5909",
"U  c #235209",
"Y  c #335404",
"T  c #3B5602",
"R  c #335B03",
"E  c #3A5D03",
"W  c #33540A",
"Q  c #335B0A",
"!  c #3A5D0B",
"~  c #3A540B",
"^  c #2A4612",
"/  c #2B4C12",
"(  c #264818",
")  c #33481B",
"_  c #2C5617",
"`  c #335412",
"'  c #345B13",
"]  c #3B5C13",
"[  c #32551B",
"{  c #345B1B",
"}  c #3C5818",
"|  c #2C6303",
" . c #296602",
".. c #336303",
"X. c #3B6303",
"o. c #336C03",
"O. c #3C6B03",
"+. c #34630B",
"@. c #3C630C",
"#. c #356A09",
"$. c #3D6B0B",
"%. c #3D7204",
"&. c #357602",
"*. c #3B6313",
"=. c #3C6A13",
"-. c #3E641B",
";. c #386618",
":. c #3A7712",
">. c #277502",
",. c #125539",
"<. c #274725",
"1. c #285726",
"2. c #345825",
"3. c #26563A",
"4. c #365A37",
"5. c #334B2C",
"6. c #3B6223",
"7. c #386B29",
"8. c #3A6835",
"9. c #32692E",
"0. c #455D05",
"q. c #445708",
"w. c #425F14",
"e. c #55550F",
"r. c #426604",
"t. c #436B05",
"y. c #43650C",
"u. c #4C640A",
"i. c #446B0B",
"p. c #4A6E0D",
"a. c #4B6804",
"s. c #447304",
"d. c #4B7404",
"f. c #447B02",
"g. c #4C7C04",
"h. c #45720B",
"j. c #4A730C",
"k. c #4C790D",
"l. c #437D0B",
"z. c #547B07",
"x. c #537C0C",
"c. c #547608",
"v. c #446B13",
"b. c #456919",
"n. c #457413",
"m. c #4A7311",
"M. c #4D7C12",
"N. c #45721C",
"B. c #497418",
"V. c #4E7A1A",
"C. c #477A11",
"Z. c #537C15",
"A. c #557918",
"S. c #516802",
"D. c #44523C",
"F. c #456827",
"G. c #497423",
"H. c #4A7428",
"J. c #537B22",
"K. c #537723",
"L. c #456C36",
"P. c #497B38",
"I. c #537737",
"U. c #5B6F20",
"Y. c #627F2E",
"T. c #334E42",
"R. c #3A7748",
"E. c #307252",
"W. c #3D7263",
"Q. c #466845",
"!. c #477547",
"~. c #537B49",
"^. c #456B57",
"/. c #4A7A59",
"(. c #507B56",
"). c #477863",
"_. c #527D63",
"`. c #3A820B",
"'. c #33862D",
"]. c #4A8507",
"[. c #55830C",
"{. c #578808",
"}. c #4C9107",
"|. c #4B8210",
" X c #538214",
".X c #5A8412",
"XX c #5B831B",
"oX c #5B8E19",
"OX c #588819",
"+X c #5D9A17",
"@X c #66890B",
"#X c #6C940D",
"$X c #648A18",
"%X c #67941A",
"&X c #779E1C",
"*X c #79A317",
"=X c #67A31F",
"-X c #47822C",
";X c #5C8824",
":X c #5E9229",
">X c #5D8435",
",X c #568634",
"<X c #688B2A",
"1X c #689528",
"2X c #749D27",
"3X c #669237",
"4X c #638D31",
"5X c #77A528",
"6X c #7EA933",
"7X c #6EA731",
"8X c #398255",
"9X c #4C8047",
"0X c #58894E",
"qX c #488557",
"wX c #51904B",
"eX c #66974F",
"rX c #7AA84D",
"tX c #56896A",
"yX c #5A9465",
"uX c #578473",
"iX c #59947A",
"pX c #4B9A7D",
"aX c #648E72",
"sX c #76B076",
"dX c #82A928",
"fX c #86B035",
"gX c #B0D819",
"hX c #B5DC2D",
"jX c #A3D144",
"kX c #5A8B86",
"lX c #5A978C",
"zX c #528E94",
"xX c #669886",
"cX c #699D8B",
"vX c #67A69A",
"bX c #73A399",
"nX c #65AE8A",
"mX c #79B2AB",
"MX c #62ADBA",
"NX c #77ABB6",
"BX c #72A9AA",
"VX c #7CB0C3",
"CX c #80B486",
"ZX c #84B9D4",
/* pixels */
"                                                                                                                                ",
"                                                                                                                                ",
"                                                                                                                                ",
"                                                                                                                                ",
"                                                                                                                                ",
"                                                                                                                                ",
"                                                                                                                                ",
"                                                                                                                                ",
"                                                                                                                                ",
"                                                                                                                                ",
"                                                                                                                                ",
"                                  -XeXaX            OXg.k.j.                                                                    ",
"                                a.{.7.y.g.d.d.{.  B.v.i...E wX  >X    ;X  >XJ.m.                                                ",
"                            yXc.Y t.F.O.h.@Xt.{.t.  XXd.O.X.-X  k.t.k.k.d.M..X%X2X                                              ",
"                              R X...  r.y.A.L.t.~.kXP.R O.X.X..XT M V V h.E R h.$Xt.eX                                          ",
"                          g.  H O.X./.tXt.k.=.E ;.8.7.Y X.oXX.y.E M H R i.Y j.X.j.i.4Xk.fX                                      ",
"                        n.0Xx.p.4.NX@.y.B | %.] ..}.Z.%.H R O.t.}.z.H H Y H R s.Y X.%XXXg.{.>XbX          mX                    ",
"                      pXq.T L.F.Q E.I.<XL  .R d.X.R $.O.V H k.%...f.k.X.h.E t.s.d.s.p.i.j.oX6X3X{.  *X;Xm.:X                    ",
"                    ).H.XXJ.9XI..XiXF.@.C N V ..].E R #.H f.H O.&.R ..x.t.E V R ! q.d.t.X.t.s.#X|.3X:XeXF >XL.mX                ",
"                    zX8.' -.v.Z.Y lX2.! V 6 6 B | | B o.B ..Y H %.O.O.R %.R T T a.T I.p.X.j.X.d.t.V.V.,X' w./.                  ",
"                    qX9XI.H.E E X.L +.H ! 6 ; - K J 6 G 6 * G.A O.f.k.n.t.~ $X4 4 T W ^ x.].s.M X.R X.! N.(.lXMX                ",
"              7X*XCX8X:Xi.i.6 H r.Y t N 6Xj.H 4 h K | V J 6 L M ;. X..A V.b.~ N y S G.{ [.].R 6 X.X.V ! p.:X_.sX6XnX            ",
"        wX  eX$Xr..Xh.s.j.m.E Y 0.0.i.i.K V  .h I Q +.6 k | 3 M * G 5 % ` ( N . : c.~.X.{...M h H e E @.d.E E X.X.z.{.  2X      ",
"        :.B.yXoXi.@.X.].p.t.M T d e.G.j.U H J 6 B B G G 6 | 5 3 ; 6 6 Y t y.S.. 2.K.;XR f.H H #.H E i.Y .Xt.X.E z.@Xr.X.M.'.    ",
"      qX7.{ t @.E s.R ;.|.H k.C : 7 u.E B $.z B ; + g B j k @.+.O 4 4 {.Z.+ b.hX-.N V O.k.5XG.+ `.5X{.t.Y ..l.5Xd.h.M M y.:X    ",
"      qX!.!.X.p.F r.M R h.E / 4 T r $X} H x R B M 5 3 5 < 5 H K 3 % 4 0.i.o =.;Xr -.M K ..L +.Z P Z.X...H B...].[.y.E Z ;.=.ZX  ",
"      ] { $.Y t.Y @.@Xt.E } a.V N Y 6.C ; +.5 6 6 s.e : 3 % k j ; ..6 6 k.@ v.W F.H e c.$.j A.~ 3 M W V R t.V f.R %.X.O.V D     ",
"      ] B Y N D r.b.e H H K @XE N D 8.B.B o.h 6 I R V N 3 6 % % % + h 4 XXF.W R V.e E y.%.| $.[.+ 3 R M M O.R V R M W A.L H BX  ",
"  MX  / H B c.y.e.w.@.Z.R R Y X.U.} u.B Q K B ..K k E j.H o % ; ' . o.O.H Q j.%X$.:...H @.Q M $.%...[ % ` 3 e Y V * e M V V   ,X",
"    R.v O.E 0.Y 5.p B B *.! K ! i C ; 3 XX$.4 B o.J 4 y.#.6 6 6 A J.{.5X@.H ].].%.#.+.3 L M 3 H R L *.2.Y H N a.Y B p.6 V Z vX  ",
"    kX1.A ) Y D T ! { ! V 6 6 h N C > 6 i.H K R +Xn.=.L H i.H B x.=X..f.X.3 ..z $.G 6 @.% + H 6 K &.#XM u.e y e Q H V E /.9.9.$X",
"    D.p j.H.-.Y T M ; B @.4 o B X X ) i.[.M ].].jX XrX+.; B . > m.5XR K OX&.6 ; B #.; J h h B.1XR K h.B F y y q.j.i.1.1.1.  vX  ",
"    lX8.] c.Y @X[ ` @Xr.I R 3 E t.f.K O...g.;XQ R h | h.M J $.t 6 $.B 3 A.6Xg & : 1 y N dX{.=.2XB B m.d.r Y v.P.<.z L.A F.xX    ",
"    E.b <./ 9 5X~ x.6 M M L K ..d.B Q h 3 H W h h h 6 @.W 5 V.H k 6 V * #.:.U f ; * * + W H R A =.] ` L.0.! y.-.Q R N.I W 6.Y   ",
"    lXR.!.2.<X6.[ *.6 R M h 5 s.$.L H G +.h 1 g  .P 5 L G B U M z z 1 O k `.z x * >.A.* o.B h j 3 5 { *X<X6. XgX5 V @.6 R 6 kX  ",
"      tXh.R.<.{ >X` + K , M 6 .XM H M G 1XL % 1 H 5 % < k P XX4 * | * % 5 g 5 J + 5 / k h M 5 3 3 o 0 F.) ( A p.G H R H K x     ",
"      R..Xv.n U M ; % % h B R i.s.O.5 G $ * 4 < % 6 < * g c % w O 5 5 5 1 < 2 g f % h h ].M K o.$.i.+ 3 [ % . + x o.Q @.        ",
"  -.0X/.  -X;.6 - 3 k 6 B h X.M k $.% 6 5 % $ % % 6 & * * * % T.* k 5 k O O o @ 3 5 %.h oX..B M B n.A ; A 3 % 6 3 h R L 9       ",
"  NX` N.ZX/.K V B 4 + ; ; ' h.G : B g 6 K 3 O * 5 3 % % * ; 2 3.+ 5 < 1 g g o o M [.H C l.1XY H H h M +X6 7 * 6 M X.k.5XQ.      ",
"          cXN 6 H 4 ; M H M O.I i.k k | G 5 $ % ; 6 5 * - + $ = O 3 1 * & 3 + % 3 G G G C.k.M H K R ; h Y ! ; ; 6 4 ..          ",
"        VXNX4 M 6 Y Y Q _ ' j 5 < < W g +.C % % H 5 $ < o @ v L 3 z ,.n 0 > o ( A ) ,X; ..y.i.! W  XR R E T M E h h - 4 B.      ",
"          P.4 X.4 V ! R ,.-Xc e * * h % m P 3 * o < o 4 o 5 % ` $ 3 P 9 a <.= N z.' L.[ ] Y M.i.H +.x.y.V R D T V M M G         ",
"      (.R.!.d aX@./ b.v.N.I B Q | x 1 1 + o * O O % o 6 9 8 , L v Z r 3 *.y.Q c.~ M V.H.B *.*.XXM &XX.R x..XM 4 ^.; Q 7.        ",
"      NXR.8.  tX@.!.1XL i.E g I J k $ < + + % 1 < % O * C L * O B -.u : *.t.S 0.Y R m.*.;XXXL ] 5 @.p.N.d.k.C./ { L 8.!.        ",
"        8.    iXA I.} 3 > ] h B % * < 6 k ; = ; 1.0 < 7 8 7 % B H A H Q $.Y 7 4 3 M Z.K K M.K v.M Y V m.Z.! @.2.B.  NXZX        ",
"                      h % 6 A p.% j o C 3 * $ o < w < L B A # e g *.b.Z h.Q ` B ; 6 7XZ k I K V M d.A.p.@.Y E A b.rXbX          ",
"                    VX8.; 3 B Q * 3 3 Z 3 3 , = W.a > I XXh.M B.V h K M XXB @ % 3 6 + * O & % o e ! X.p.$.B Q E 8.fX            ",
"                      9X  s A h B h . 3 ; 5 * * % u T.} y.! j.V o.h $.V + e + * $ % 3 % X O - * 6 V T M.Y H E y.-.J.%X! cX      ",
"                        kX<.E h H B B 3 ( l $ . % ; M M * h 6 H G +.< % ; % @.B 5 0 @ @ T.q W 4 | j M B * 6 E r.; ; Y H !.bX    ",
"                        , h h 3 5 B B B 4.q + o 6 l e * ; W g 5 g.c < 3 + % ; 6 4 Q.i <.<.8 G e ! | v.R W B 4 H : + ^ 4.        ",
"                          ;.  7 e Z M M / 8 5 3 o O * + ~.[ 9 i g 4 K L [ l % h 2._ v ( < 5 l B 3.a v 4 OX1Xg x N.! L 6 dX  F.  ",
"                            / 2.A Z E Q 5 ( B ; . $ %       s 7  .H B { q , ; B M B 4.).* 3       * _.2.7.:.z K 7.uXL.7.        ",
"                                  Q.    [   ^.^.uX8.          s u / t   i     qX  ^.8.                                          ",
"                                                                                                                                ",
"                                                                                                                                ",
"                                                                                                                                ",
"                                                                                                                                ",
"                                                                                                                                ",
"                                                                                                                                ",
"                                                                                                                                ",
"                                                                                                                                ",
"                                                                                                                                ",
"                                                                                                                                ",
"                                                                                                                                "
};
